<svg width="31" height="31" viewBox="0 0 31 31" fill="none" xmlns="http://www.w3.org/2000/svg">
<path d="M24.5777 1.95523C26.1394 0.393802 27.6983 -0.579175 29.2601 0.982257L29.2829 0.997361C30.8447 2.55879 29.8264 4.07229 28.2646 5.63373L5.29775 28.4256C3.73602 29.987 2.56691 30.831 1.00517 29.2696L0.982333 29.2545C-0.579403 27.6931 0.393762 26.1345 1.9555 24.573L24.5777 1.95523Z" fill="black"/>
<path d="M28.3931 24.618C29.9548 26.1795 30.9731 27.693 29.4114 29.2544L29.2601 29.3986C27.6983 30.96 26.1394 29.987 24.5777 28.4256L2.0006 5.7627C0.438867 4.20127 -0.57942 2.68777 0.982317 1.12634L1.13363 0.982175C2.69537 -0.579256 4.25427 0.39373 5.81601 1.95516L28.3931 24.618Z" fill="black"/>
</svg>
