<svg width="30" height="30" viewBox="0 0 30 30" fill="none" xmlns="http://www.w3.org/2000/svg">
<path fill-rule="evenodd" clip-rule="evenodd" d="M29.7254 0.274587C30.0915 0.640704 30.0915 1.2343 29.7254 1.60041L1.60041 29.7254C1.2343 30.0915 0.640704 30.0915 0.274587 29.7254C-0.0915292 29.3593 -0.0915292 28.7657 0.274587 28.3996L28.3996 0.274587C28.7657 -0.0915292 29.3593 -0.0915292 29.7254 0.274587Z" fill="black"/>
<path fill-rule="evenodd" clip-rule="evenodd" d="M0.274587 0.274587C0.640704 -0.0915292 1.2343 -0.0915292 1.60041 0.274587L29.7254 28.3996C30.0915 28.7657 30.0915 29.3593 29.7254 29.7254C29.3593 30.0915 28.7657 30.0915 28.3996 29.7254L0.274587 1.60041C-0.0915292 1.2343 -0.0915292 0.640704 0.274587 0.274587Z" fill="black"/>
</svg>
