<svg width="32" height="32" viewBox="0 0 32 32" fill="none" xmlns="http://www.w3.org/2000/svg">
<mask id="mask0_111_11" style="mask-type:alpha" maskUnits="userSpaceOnUse" x="0" y="0" width="32" height="32">
<rect width="32" height="32" fill="#D9D9D9"/>
</mask>
<g mask="url(#mask0_111_11)">
<path fill-rule="evenodd" clip-rule="evenodd" d="M1 7C1 6.44772 1.44772 6 2 6H29C29.5523 6 30 6.44772 30 7C30 7.55228 29.5523 8 29 8H2C1.44772 8 1 7.55228 1 7Z" fill="black"/>
<path fill-rule="evenodd" clip-rule="evenodd" d="M12.5 2C11.9696 2 11.4609 2.21071 11.0858 2.58579C10.7107 2.96086 10.5 3.46957 10.5 4V7C10.5 7.55228 10.0523 8 9.5 8C8.94772 8 8.5 7.55228 8.5 7V4C8.5 2.93913 8.92143 1.92172 9.67157 1.17157C10.4217 0.421427 11.4391 0 12.5 0H18.5C19.5609 0 20.5783 0.421427 21.3284 1.17157C22.0786 1.92172 22.5 2.93913 22.5 4V7C22.5 7.55228 22.0523 8 21.5 8C20.9477 8 20.5 7.55228 20.5 7V4C20.5 3.46957 20.2893 2.96086 19.9142 2.58579C19.5391 2.21071 19.0304 2 18.5 2H12.5ZM5 6C5.55228 6 6 6.44772 6 7V28C6 28.5304 6.21071 29.0391 6.58579 29.4142C6.96086 29.7893 7.46957 30 8 30H23C23.5304 30 24.0391 29.7893 24.4142 29.4142C24.7893 29.0391 25 28.5304 25 28V7C25 6.44772 25.4477 6 26 6C26.5523 6 27 6.44772 27 7V28C27 29.0609 26.5786 30.0783 25.8284 30.8284C25.0783 31.5786 24.0609 32 23 32H8C6.93913 32 5.92172 31.5786 5.17157 30.8284C4.42143 30.0783 4 29.0609 4 28V7C4 6.44772 4.44772 6 5 6Z" fill="black"/>
</g>
</svg>
