<svg width="30" height="31" viewBox="0 0 30 31" fill="none" xmlns="http://www.w3.org/2000/svg">
<path d="M26.2647 2.15532C26.2647 2.15532 15.5 22.6504 14.5 23.7329C13.5 24.8153 11.5 24.8153 10.5 23.7329C9.5 22.6504 3.55417 14.9775 3.55417 14.9775C2.78535 13.8973 1.47593 13.8343 0.646292 14.8377C-0.152712 15.8041 -0.212817 17.4082 0.510253 18.4684C0.510253 18.4684 6.68153 27.046 8.72305 29.0104C10.6625 30.8766 11.2749 30.9748 12.806 30.9886C16.0619 31.0179 18.5857 26.3088 18.8837 25.7503C18.8986 25.7224 18.8681 25.7776 18.8837 25.7503L29.6484 5.08689C30.3068 3.85199 30.0265 2.16167 29.0333 1.37752C28.0977 0.638808 26.8741 0.982546 26.2647 2.15532Z" fill="black"/>
</svg>
