<svg width="32" height="32" viewBox="0 0 32 32" fill="none" xmlns="http://www.w3.org/2000/svg">
<path fill-rule="evenodd" clip-rule="evenodd" d="M26.7207 2C26.29 2 25.8636 2.08482 25.4657 2.24963C25.0679 2.41443 24.7063 2.65598 24.4018 2.9605L4.16438 23.1979L2.42524 29.5748L8.80208 27.8356L29.0395 7.5982C29.344 7.29369 29.5856 6.93217 29.7504 6.53431C29.9152 6.13644 30 5.71001 30 5.27935C30 4.8487 29.9152 4.42226 29.7504 4.0244C29.5856 3.62653 29.344 3.26502 29.0395 2.9605C28.735 2.65598 28.3735 2.41443 27.9756 2.24963C27.5778 2.08482 27.1513 2 26.7207 2ZM24.7004 0.401866C25.3409 0.136554 26.0274 0 26.7207 0C27.414 0 28.1005 0.136554 28.741 0.401866C29.3815 0.667179 29.9635 1.05605 30.4537 1.54629C30.944 2.03652 31.3328 2.61851 31.5982 3.25903C31.8635 3.89956 32 4.58606 32 5.27935C32 5.97264 31.8635 6.65915 31.5982 7.29967C31.3328 7.94019 30.944 8.52219 30.4537 9.01242L10.0285 29.4376C9.90546 29.5607 9.75242 29.6495 9.58453 29.6953L1.26314 31.9648C0.916928 32.0592 0.546666 31.9609 0.292916 31.7071C0.0391662 31.4534 -0.0591621 31.0831 0.0352593 30.7369L2.30473 22.4155C2.35052 22.2476 2.43933 22.0946 2.56239 21.9715L22.9876 1.54629C23.4778 1.05605 24.0598 0.667179 24.7004 0.401866Z" fill="black"/>
</svg>
