<svg width="30" height="30" viewBox="0 0 30 30" fill="none" xmlns="http://www.w3.org/2000/svg">
<path fill-rule="evenodd" clip-rule="evenodd" d="M15 30C23.2843 30 30 23.2843 30 15C30 6.71573 23.2843 0 15 0C6.71573 0 0 6.71573 0 15C0 23.2843 6.71573 30 15 30ZM16.229 8.08269C17.23 8.08269 18.0414 7.27127 18.0414 6.27032V5.77136C18.0414 4.77041 17.23 3.95898 16.229 3.95898H13.8126C12.8116 3.95898 12.0002 4.77041 12.0002 5.77136L12.0002 6.27032C12.0002 7.27127 12.8116 8.0827 13.8126 8.0827L16.229 8.08269ZM16.229 26.0827C17.23 26.0827 18.0414 25.2713 18.0414 24.2703L18.0414 12.7714C18.0414 11.7704 17.23 10.959 16.229 10.959H13.8126C12.8116 10.959 12.0002 11.7704 12.0002 12.7714L12.0002 24.2703C12.0002 25.2713 12.8116 26.0827 13.8126 26.0827H16.229Z" fill="black"/>
</svg>
