<svg width="34" height="34" viewBox="0 0 34 34" fill="none" xmlns="http://www.w3.org/2000/svg">
<path fill-rule="evenodd" clip-rule="evenodd" d="M17 2C16.4937 2 16.0081 2.20114 15.6501 2.55916C15.292 2.91718 15.0909 3.40277 15.0909 3.90909V4.16035C15.0883 4.82343 14.8918 5.47126 14.5257 6.0241C14.1595 6.57694 13.6398 7.01066 13.0303 7.27187C12.9321 7.31395 12.828 7.33995 12.7219 7.34906C12.1549 7.55708 11.5413 7.61073 10.9444 7.50251C10.2759 7.38131 9.6591 7.06264 9.17346 6.58759L9.16558 6.57988L9.07835 6.49256C8.90105 6.31506 8.6901 6.17385 8.45834 6.07778C8.22658 5.98171 7.97816 5.93226 7.72727 5.93226C7.47639 5.93226 7.22796 5.98171 6.9962 6.07778C6.76445 6.17385 6.55389 6.31467 6.37659 6.49217L6.3758 6.49295C6.1983 6.67026 6.05749 6.88081 5.96142 7.11257C5.86534 7.34433 5.81589 7.59275 5.81589 7.84364C5.81589 8.09452 5.86534 8.34294 5.96142 8.5747C6.05749 8.80646 6.1983 9.01701 6.3758 9.19432L6.47127 9.28978C6.94632 9.77542 7.26494 10.3923 7.38615 11.0607C7.50547 11.7188 7.42801 12.3972 7.16385 13.0112C6.92632 13.6389 6.50816 14.1826 5.96182 14.5734C5.40691 14.9703 4.74543 15.191 4.06338 15.207L4.04 15.2073H3.90909C3.40277 15.2073 2.91718 15.4084 2.55916 15.7664C2.20114 16.1245 2 16.61 2 17.1164C2 17.6227 2.20114 18.1083 2.55916 18.4663C2.91718 18.8243 3.40277 19.0255 3.90909 19.0255H4.16035C4.82343 19.0281 5.47126 19.2246 6.0241 19.5907C6.57547 19.9558 7.00835 20.4738 7.26978 21.0812C7.54232 21.7014 7.62339 22.389 7.50251 23.0556C7.38131 23.7241 7.06264 24.3409 6.58759 24.8265L6.57987 24.8344L6.49255 24.9217C6.31505 25.099 6.17386 25.3099 6.07778 25.5417C5.98171 25.7734 5.93226 26.0218 5.93226 26.2727C5.93226 26.5236 5.98171 26.772 6.07778 27.0038C6.17386 27.2356 6.31467 27.4461 6.49217 27.6234L6.49296 27.6242C6.67026 27.8017 6.88081 27.9425 7.11257 28.0386C7.34433 28.1347 7.59275 28.1841 7.84364 28.1841C8.09452 28.1841 8.34294 28.1347 8.5747 28.0386C8.80647 27.9425 9.01702 27.8017 9.19432 27.6242L9.28978 27.5287C9.77543 27.0537 10.3923 26.7351 11.0607 26.6139C11.7188 26.4945 12.3972 26.572 13.0111 26.8361C13.6389 27.0737 14.1826 27.4918 14.5734 28.0382C14.9703 28.5931 15.191 29.2546 15.207 29.9366L15.2073 29.96V30.0909C15.2073 30.5972 15.4084 31.0828 15.7664 31.4408C16.1245 31.7989 16.61 32 17.1164 32C17.6227 32 18.1083 31.7989 18.4663 31.4408C18.8243 31.0828 19.0255 30.5972 19.0255 30.0909V29.8436L19.0255 29.8396C19.0281 29.1766 19.2246 28.5287 19.5907 27.9759C19.9559 27.4245 20.4739 26.9916 21.0813 26.7302C21.7015 26.4577 22.389 26.3766 23.0556 26.4975C23.7241 26.6187 24.3409 26.9374 24.8265 27.4124L24.8344 27.4201L24.9217 27.5074C25.099 27.6849 25.3099 27.8261 25.5417 27.9222C25.7734 28.0183 26.0218 28.0677 26.2727 28.0677C26.5236 28.0677 26.772 28.0183 27.0038 27.9222C27.2356 27.8261 27.4461 27.6853 27.6234 27.5078L27.6242 27.507C27.8017 27.3297 27.9425 27.1192 28.0386 26.8874C28.1347 26.6557 28.1841 26.4072 28.1841 26.1564C28.1841 25.9055 28.1347 25.6571 28.0386 25.4253C27.9425 25.1935 27.8017 24.983 27.6242 24.8057L27.5287 24.7102C27.0537 24.2246 26.7351 23.6077 26.6139 22.9393C26.493 22.2726 26.574 21.5851 26.8465 20.965C27.108 20.3575 27.5409 19.8395 28.0923 19.4743C28.6451 19.1082 29.2929 18.9117 29.956 18.9091L29.96 18.9091L30.0909 18.9091C30.5972 18.9091 31.0828 18.708 31.4408 18.3499C31.7989 17.9919 32 17.5063 32 17C32 16.4937 31.7989 16.0081 31.4408 15.6501C31.0828 15.292 30.5972 15.0909 30.0909 15.0909H29.8436L29.8396 15.0909C29.1766 15.0883 28.5287 14.8918 27.9759 14.5257C27.4231 14.1595 26.9893 13.6398 26.7281 13.0303C26.6861 12.9321 26.66 12.828 26.6509 12.7219C26.4429 12.1549 26.3893 11.5413 26.4975 10.9444C26.6187 10.2759 26.9374 9.6591 27.4124 9.17346L27.4201 9.16559L27.5074 9.07836C27.6849 8.90105 27.8261 8.6901 27.9222 8.45834C28.0183 8.22658 28.0677 7.97816 28.0677 7.72727C28.0677 7.47639 28.0183 7.22797 27.9222 6.9962C27.8261 6.76445 27.6853 6.5539 27.5078 6.37659L27.507 6.3758C27.3297 6.1983 27.1192 6.05749 26.8874 5.96142C26.6557 5.86534 26.4072 5.81589 26.1564 5.81589C25.9055 5.81589 25.6571 5.86534 25.4253 5.96142C25.1935 6.05749 24.983 6.19831 24.8057 6.3758L24.7102 6.47127C24.2246 6.94632 23.6077 7.26494 22.9393 7.38615C22.2726 7.50702 21.5851 7.42596 20.9648 7.15342C20.3575 6.89199 19.8395 6.45911 19.4743 5.90774C19.1082 5.3549 18.9117 4.70706 18.9091 4.04399L18.9091 4.04V3.90909C18.9091 3.40277 18.708 2.91718 18.3499 2.55916C17.9919 2.20114 17.5063 2 17 2ZM14.2359 1.14495C14.969 0.41185 15.9632 0 17 0C18.0368 0 19.031 0.41185 19.7641 1.14495C20.4972 1.87804 20.9091 2.87233 20.9091 3.90909V4.03768C20.9105 4.31013 20.9914 4.57626 21.1418 4.80344C21.2926 5.03108 21.5066 5.20967 21.7576 5.31722L21.7674 5.32145C22.0233 5.43439 22.3072 5.46814 22.5824 5.41823C22.8561 5.36861 23.1087 5.23862 23.3082 5.04488L23.3907 4.96238C23.3908 4.96225 23.3906 4.96251 23.3907 4.96238C23.7537 4.5991 24.185 4.31052 24.6594 4.11387C25.134 3.91715 25.6426 3.81589 26.1564 3.81589C26.6701 3.81589 27.1788 3.91715 27.6533 4.11387C28.1279 4.31059 28.559 4.59893 28.922 4.96238C29.2851 5.32526 29.5732 5.75611 29.7698 6.23032C29.9665 6.70488 30.0677 7.21356 30.0677 7.72727C30.0677 8.24099 29.9665 8.74967 29.7698 9.22422C29.5731 9.6986 29.2849 10.1296 28.9217 10.4926C28.9215 10.4927 28.9218 10.4924 28.9217 10.4926L28.8388 10.5754C28.645 10.7749 28.515 11.0275 28.4654 11.3012C28.4155 11.5764 28.4492 11.8603 28.5621 12.1162C28.6002 12.2026 28.6258 12.2936 28.6384 12.3867C28.7465 12.5755 28.8976 12.7372 29.0802 12.8582C29.3074 13.0086 29.5735 13.0895 29.846 13.0909H30.0909C31.1277 13.0909 32.122 13.5028 32.8551 14.2359C33.5882 14.969 34 15.9632 34 17C34 18.0368 33.5882 19.031 32.8551 19.7641C32.122 20.4972 31.1277 20.9091 30.0909 20.9091H29.9623C29.6899 20.9105 29.4237 20.9914 29.1966 21.1418C28.9689 21.2926 28.7903 21.5066 28.6828 21.7576L28.6786 21.7674C28.5656 22.0233 28.5319 22.3072 28.5818 22.5824C28.6314 22.8561 28.7614 23.1088 28.9552 23.3082L29.0376 23.3907C29.4011 23.7537 29.6894 24.1849 29.8861 24.6594C30.0829 25.134 30.1841 25.6426 30.1841 26.1564C30.1841 26.6701 30.0829 27.1788 29.8861 27.6533C29.6895 28.1277 29.4013 28.5587 29.038 28.9217C28.6751 29.2849 28.2441 29.5731 27.7697 29.7698C27.2951 29.9665 26.7864 30.0677 26.2727 30.0677C25.759 30.0677 25.2503 29.9665 24.7758 29.7698C24.3014 29.5731 23.8704 29.2849 23.5074 28.9217C23.5073 28.9215 23.5076 28.9218 23.5074 28.9217L23.4245 28.8387C23.2251 28.645 22.9725 28.515 22.6988 28.4654C22.4236 28.4155 22.1397 28.4492 21.8838 28.5621L21.874 28.5665C21.623 28.674 21.4089 28.8526 21.2582 29.0802C21.1077 29.3074 21.0269 29.5735 21.0255 29.846V30.0909C21.0255 31.1277 20.6136 32.122 19.8805 32.8551C19.1474 33.5882 18.1531 34 17.1164 34C16.0796 34 15.0853 33.5882 14.3522 32.8551C13.6191 32.122 13.2073 31.1277 13.2073 30.0909V29.9733C13.1988 29.696 13.1081 29.4274 12.9466 29.2017C12.7832 28.9732 12.5548 28.7991 12.2912 28.7022C12.2714 28.6949 12.2519 28.687 12.2326 28.6785C11.9767 28.5656 11.6928 28.5319 11.4176 28.5818C11.1439 28.6314 10.8912 28.7614 10.6918 28.9551L10.6093 29.0376C10.6092 29.0378 10.6094 29.0375 10.6093 29.0376C10.2463 29.4009 9.81497 29.6895 9.34058 29.8861C8.86603 30.0829 8.35735 30.1841 7.84364 30.1841C7.32992 30.1841 6.82124 30.0829 6.34669 29.8861C5.87248 29.6896 5.44163 29.4015 5.07874 29.0384C4.71529 28.6754 4.42696 28.2442 4.23024 27.7697C4.03351 27.2951 3.93226 26.7864 3.93226 26.2727C3.93226 25.759 4.03351 25.2503 4.23024 24.7758C4.42689 24.3014 4.71508 23.8704 5.07836 23.5074C5.07848 23.5073 5.07823 23.5076 5.07836 23.5074L5.16124 23.4245C5.35498 23.2251 5.48498 22.9725 5.5346 22.6988C5.5845 22.4236 5.55081 22.1397 5.43786 21.8838L5.43353 21.874C5.32598 21.623 5.14744 21.4089 4.9198 21.2582C4.69262 21.1077 4.42649 21.0269 4.15404 21.0255H3.90909C2.87233 21.0255 1.87804 20.6136 1.14495 19.8805C0.41185 19.1474 0 18.1531 0 17.1164C0 16.0796 0.41185 15.0853 1.14495 14.3522C1.87804 13.6191 2.87234 13.2073 3.90909 13.2073H4.02675C4.30401 13.1988 4.57258 13.1081 4.79832 12.9466C5.02682 12.7832 5.20086 12.5548 5.29783 12.2912C5.3051 12.2714 5.31299 12.2519 5.3215 12.2326C5.43445 11.9767 5.46814 11.6928 5.41823 11.4176C5.36861 11.1439 5.2386 10.8912 5.04485 10.6918L4.96238 10.6093C4.59892 10.2463 4.31059 9.81514 4.11387 9.34058C3.91715 8.86603 3.81589 8.35735 3.81589 7.84364C3.81589 7.32992 3.91715 6.82124 4.11387 6.34669C4.31055 5.87224 4.59879 5.4412 4.96213 5.0782C5.32507 4.715 5.756 4.42686 6.23032 4.23024C6.70488 4.03351 7.21356 3.93226 7.72727 3.93226C8.24099 3.93226 8.74967 4.03351 9.22422 4.23024C9.69878 4.42696 10.1299 4.71529 10.493 5.07874L10.5754 5.16121C10.7749 5.35497 11.0275 5.48497 11.3012 5.5346C11.5764 5.5845 11.8603 5.55081 12.1162 5.43786C12.2026 5.39977 12.2936 5.37417 12.3867 5.36166C12.5755 5.25352 12.7372 5.10245 12.8582 4.9198C13.0086 4.69262 13.0895 4.42649 13.0909 4.15404V3.90909C13.0909 2.87234 13.5028 1.87804 14.2359 1.14495ZM17 13.6364C15.1423 13.6364 13.6364 15.1423 13.6364 17C13.6364 18.8577 15.1423 20.3636 17 20.3636C18.8577 20.3636 20.3636 18.8577 20.3636 17C20.3636 15.1423 18.8577 13.6364 17 13.6364ZM11.6364 17C11.6364 14.0377 14.0377 11.6364 17 11.6364C19.9623 11.6364 22.3636 14.0377 22.3636 17C22.3636 19.9623 19.9623 22.3636 17 22.3636C14.0377 22.3636 11.6364 19.9623 11.6364 17Z" fill="black"/>
</svg>
