<svg width="32" height="32" viewBox="0 0 32 32" fill="none" xmlns="http://www.w3.org/2000/svg">
<path fill-rule="evenodd" clip-rule="evenodd" d="M4.33333 2C3.71449 2 3.121 2.24583 2.68342 2.68342C2.24583 3.121 2 3.71449 2 4.33333V27.6667C2 28.2855 2.24583 28.879 2.68342 29.3166C3.121 29.7542 3.71449 30 4.33333 30H27.6667C28.2855 30 28.879 29.7542 29.3166 29.3166C29.7542 28.879 30 28.2855 30 27.6667V9.74755L22.2525 2H4.33333ZM1.2692 1.2692C2.08186 0.456546 3.18406 0 4.33333 0H22.6667C22.9319 0 23.1862 0.105357 23.3738 0.292893L31.7071 8.62623C31.8946 8.81376 32 9.06812 32 9.33333V27.6667C32 28.8159 31.5435 29.9181 30.7308 30.7308C29.9181 31.5435 28.8159 32 27.6667 32H4.33333C3.18406 32 2.08186 31.5435 1.2692 30.7308C0.456546 29.9181 0 28.8159 0 27.6667V4.33333C0 3.18406 0.456546 2.08186 1.2692 1.2692Z" fill="black"/>
<path fill-rule="evenodd" clip-rule="evenodd" d="M6.66669 17.6667C6.66669 17.1144 7.1144 16.6667 7.66669 16.6667H24.3334C24.8856 16.6667 25.3334 17.1144 25.3334 17.6667V31C25.3334 31.5523 24.8856 32 24.3334 32C23.7811 32 23.3334 31.5523 23.3334 31V18.6667H8.66669V31C8.66669 31.5523 8.21897 32 7.66669 32C7.1144 32 6.66669 31.5523 6.66669 31V17.6667Z" fill="black"/>
<path fill-rule="evenodd" clip-rule="evenodd" d="M7.66669 0C8.21897 0 8.66669 0.447715 8.66669 1V8.33333H21C21.5523 8.33333 22 8.78105 22 9.33333C22 9.88562 21.5523 10.3333 21 10.3333H7.66669C7.1144 10.3333 6.66669 9.88562 6.66669 9.33333V1C6.66669 0.447715 7.1144 0 7.66669 0Z" fill="black"/>
</svg>
